<svg xmlns="http://www.w3.org/2000/svg" width="247" height="76" viewBox="0 0 247 76" fill="none">
    <mask id="path-1-inside-1_19_52" fill="white">
        <path d="M22.8601 14.1403L21.7907 13.7214C20.9235 13.4022 20.2395 13.1229 19.7385 12.8835C18.2354 12.152 17.3009 11.3008 16.9347 10.33C16.5108 9.18623 16.742 8.18891 17.6284 7.33767C18.6112 6.42 20.0275 6.09418 21.8773 6.36015C23.0142 6.50644 23.8235 6.72587 24.3052 7.01849C24.7677 7.29778 25.1917 7.79651 25.5771 8.51468C25.1917 8.03589 24.5654 7.7167 23.6982 7.55711C22.8504 7.38421 22.0892 7.43076 21.4148 7.69674C20.2586 8.16222 19.7287 8.86045 19.8251 9.79144C19.9214 10.6692 20.4706 11.4273 21.4726 12.0657C22.6288 12.8105 24.0933 13.1363 25.8662 13.0432C27.6776 12.9368 29.0652 12.4381 30.0286 11.547C30.7416 10.8953 31.1944 10.0176 31.3871 8.91362C31.522 8.07574 31.5028 7.15143 31.3293 6.14071C30.8861 3.66707 28.8339 1.90494 25.1726 0.85412C20.914 -0.0502524 16.4627 -0.236435 11.8187 0.295554C8.94755 0.707855 6.5387 1.57897 4.59261 2.90892C2.51147 4.30537 1.29743 5.99438 0.950543 7.97612C0.680775 9.35926 0.883109 10.6694 1.55754 11.9061C2.28978 13.236 3.50378 14.3865 5.19961 15.3574C5.9126 15.783 7.09769 16.2884 8.75496 16.8735L9.79551 17.2326L10.8361 17.5917C11.6069 17.8843 12.2717 18.1503 12.8305 18.3897C15.9715 19.7196 17.4552 21.3422 17.2818 23.2573C17.2047 24.0952 17.0024 24.7801 16.6748 25.3122C16.2508 26.0037 15.586 26.4493 14.6804 26.6488C12.6763 27.101 11.1733 26.549 10.1714 24.993V25.0129L10.2003 25.0329C10.2195 25.0462 10.2292 25.0395 10.2292 25.0129C11.1541 25.8641 12.1947 26.0836 13.3509 25.6713C14.43 25.2989 15.0466 24.614 15.2008 23.6164C15.432 22.3397 14.9021 21.3289 13.611 20.5841C12.5319 19.959 11.0674 19.58 9.21743 19.447C6.61601 19.2741 4.31329 19.8659 2.3092 21.2224C0.228052 22.6588 -0.446374 24.3212 0.285887 26.2098C1.01812 28.085 2.67533 29.5414 5.25751 30.5787C7.60841 31.5097 10.3641 31.9619 13.5243 31.9353C18.9005 31.9087 22.9087 31.4166 25.5486 30.459C28.3813 29.435 30.4045 28.0651 31.6186 26.3495C33.2373 24.0487 33.1024 21.7346 31.214 19.4072C29.6338 17.4921 27.1868 15.8697 23.8721 14.5396L22.8601 14.1403ZM58.2828 22.8382C57.1266 22.3062 56.404 21.6147 56.1149 20.7635C55.8452 19.9523 55.9897 19.1742 56.5485 18.4294C57.1266 17.658 58.0033 17.1061 59.1788 16.7736C59.4486 17.5317 60.0363 18.1568 60.9419 18.6488C61.8476 19.1542 62.8786 19.4069 64.0347 19.4069C65.4221 19.4069 66.6072 19.0678 67.59 18.3895C68.5535 17.7112 69.0352 16.8999 69.0352 15.9557C69.0352 15.2242 68.7366 14.5592 68.1392 13.9608C67.5226 13.2692 66.3568 12.7439 64.6419 12.3848C62.7534 11.9858 60.8361 11.9791 58.8897 12.3648C57.406 12.6574 55.951 13.1695 54.5252 13.9009C54.8527 11.8395 55.8644 10.124 57.5602 8.75407C59.2752 7.37092 61.2694 6.67939 63.5435 6.67939C65.1621 6.67939 66.6652 7.05177 68.0525 7.79656C69.4014 8.51473 70.4901 9.48562 71.3186 10.7092C71.6077 8.44842 72.0027 6.1807 72.5037 3.90644C72.6579 3.18827 72.8217 2.51663 72.9951 1.89155C73.0337 1.69206 73.0818 1.51251 73.1396 1.35292C73.1396 1.29972 73.1493 1.24651 73.1685 1.19331V1.15341H73.1975H41.4326C43.533 6.68595 44.2556 12.9635 43.6004 19.9857C43.3885 22.3662 43.0223 24.6872 42.5021 26.948C42.3286 27.7725 42.1359 28.5439 41.924 29.2621C41.7698 29.8207 41.6253 30.2529 41.4904 30.5588H73.0836C71.754 27.8988 71.0025 24.5076 70.8291 20.3846C69.9619 21.4219 68.9117 22.2332 67.6783 22.8184C66.3872 23.4302 65.0094 23.736 63.5449 23.736C61.3675 23.736 59.6124 23.4367 58.2828 22.8382ZM110.007 22.5788C106.732 23.9087 103.562 23.8688 100.498 22.459C97.6457 21.1557 95.8634 19.2073 95.1504 16.614C94.6879 14.9382 94.8131 13.3089 95.5261 11.7263C96.3162 9.98409 97.6747 8.70051 99.6018 7.87603C100.43 7.51695 101.163 7.25095 101.799 7.07805C102.666 6.82536 103.465 6.69235 104.198 6.67905C104.949 6.67905 105.653 6.76549 106.308 6.93838C107.098 7.13788 107.657 7.43048 107.984 7.81616C108.215 8.09545 108.341 8.35479 108.36 8.59418V8.57423C107.705 7.74967 106.712 7.35733 105.383 7.39723C103.822 7.45043 102.752 7.98907 102.174 9.01313C101.866 9.57172 101.953 10.1901 102.434 10.8684C102.877 11.4935 103.484 11.959 104.255 12.2648C105.778 12.8633 107.368 13.0961 109.024 12.9631C110.778 12.8301 112.194 12.3047 113.273 11.3871C114.352 10.496 114.988 9.1594 115.181 7.37725C115.47 4.71731 113.919 2.78235 110.527 1.57199C107.772 0.587824 104.245 0.188843 99.9482 0.375025C96.4796 0.521313 93.2711 1.31929 90.3229 2.76899C87.2784 4.25855 84.8599 6.14699 83.0677 8.43453C81.2564 10.7221 80.341 13.0827 80.3218 15.5165C80.3025 18.1499 80.9577 20.5372 82.2873 22.6784C83.771 25.0724 85.9776 26.9542 88.9063 28.3242C93.1069 30.2925 97.9439 31.2102 103.416 31.0772C106.114 31.0108 108.619 30.5852 110.932 29.8005C113.591 28.8961 115.421 27.6725 116.424 26.1298C117.021 25.1988 117.252 24.0351 117.117 22.6386C116.963 21.2156 116.472 20.0851 115.643 19.2471C113.369 20.8697 111.491 21.9802 110.007 22.5788ZM137.77 12.6242C137.558 10.975 137.443 9.25271 137.423 7.45728C139.736 7.37748 141.692 7.51049 143.291 7.85626C145.276 8.29514 146.191 8.99337 146.037 9.95096C145.671 12.2252 142.915 13.1163 137.77 12.6242ZM162.311 22.3396C161.906 22.7651 161.396 23.1442 160.779 23.4767C159.546 24.155 158.38 24.2813 157.282 23.8557C156.685 23.6429 156.145 23.2838 155.663 22.7785C155.297 22.4194 154.921 21.9472 154.536 21.3621C154.536 21.3488 154.401 21.1293 154.131 20.7037L153.38 19.5068L152.57 18.3298C152.089 17.6515 151.54 17.033 150.923 16.4745C152.676 16.0888 153.871 15.7962 154.507 15.5967C156.28 15.0647 157.609 14.2202 158.496 13.0632C159.267 12.079 159.652 10.9885 159.652 9.79144C159.652 9.51214 159.633 9.22621 159.594 8.93362C159.536 8.52132 159.44 8.1157 159.305 7.71672C158.958 6.62614 158.361 5.65532 157.513 4.80408C155.066 2.34372 150.856 1.11354 144.882 1.11354H124.533C126.633 10.9552 126.614 20.6506 124.475 30.1991C124.456 30.2656 124.437 30.3254 124.417 30.3786V30.4385H141.529C140.18 26.5949 139.294 22.5052 138.87 18.1696L139.419 18.2893C141.211 18.7946 142.512 19.679 143.321 20.9425C143.629 21.4345 143.899 22.0197 144.13 22.698L144.391 23.6157L144.622 24.5134L144.824 25.2116L145.027 25.9099C145.181 26.4285 145.344 26.8874 145.518 27.2864C145.98 28.2838 146.597 29.0951 147.368 29.7202C149.449 31.4358 152.041 32.1474 155.143 31.8547C156.627 31.7084 157.966 31.3227 159.161 30.6977C160.356 30.0593 161.281 29.248 161.936 28.2638C162.148 27.9181 162.331 27.5523 162.485 27.1667C162.967 25.9032 162.996 24.5333 162.572 23.0571L162.311 22.3396ZM187.154 22.8382C185.998 22.3062 185.275 21.6147 184.986 20.7635C184.716 19.9523 184.861 19.1742 185.419 18.4294C185.998 17.658 186.874 17.1061 188.05 16.7736C188.32 17.5317 188.907 18.1568 189.813 18.6488C190.719 19.1542 191.75 19.4069 192.906 19.4069C194.293 19.4069 195.478 19.0678 196.461 18.3895C197.424 17.7112 197.906 16.8999 197.906 15.9557C197.906 15.2242 197.608 14.5592 197.01 13.9608C196.394 13.2692 195.228 12.7439 193.513 12.3848C191.624 11.9858 189.707 11.9791 187.761 12.3648C186.277 12.6574 184.822 13.1695 183.396 13.9009C183.724 11.8395 184.735 10.124 186.431 8.75407C188.146 7.37092 190.14 6.67939 192.414 6.67939C194.033 6.67939 195.536 7.05177 196.923 7.79656C198.272 8.51473 199.361 9.48562 200.19 10.7092C200.479 8.44842 200.874 6.1807 201.375 3.90644C201.529 3.18827 201.693 2.51663 201.866 1.89155C201.905 1.69206 201.953 1.51251 202.011 1.35292C202.011 1.29972 202.02 1.24651 202.04 1.19331V1.15341H202.068H170.304C172.404 6.68595 173.127 12.9635 172.471 19.9857C172.259 22.3662 171.893 24.6872 171.373 26.948C171.2 27.7725 171.007 28.5439 170.795 29.2621C170.641 29.8207 170.496 30.2529 170.361 30.5588H201.955C200.625 27.8988 199.873 24.5076 199.7 20.3846C198.833 21.4219 197.783 22.2332 196.549 22.8184C195.258 23.4302 193.88 23.736 192.416 23.736C190.238 23.736 188.483 23.4367 187.154 22.8382ZM211.188 1.15235L211.188 9.87025C211.939 8.96588 212.932 8.22111 214.165 7.63582C215.437 7.05064 216.699 6.75805 217.952 6.75805C220.437 6.75805 222.2 7.59593 223.241 9.27173C223.916 10.3623 224.253 11.7919 224.253 13.5608C224.253 14.1859 224.214 14.9373 224.137 15.8151L224.022 16.9123C223.983 17.3511 223.954 17.6903 223.935 17.9297C223.781 19.7916 223.415 21.9062 222.836 24.2736C222.625 25.1913 222.345 26.242 221.998 27.4257L221.131 30.5577H237.173C237.038 30.5577 236.74 29.5603 236.277 27.5654C236.123 26.9403 235.959 26.2155 235.786 25.3909L235.67 24.952L235.641 24.7525L235.612 24.5929C235.554 24.3535 235.516 24.2138 235.497 24.174C234.899 21.5406 234.437 18.402 234.109 14.7578L234.022 13.9399L233.965 13.122C233.926 12.4836 233.945 11.9184 234.022 11.4263C234.177 10.1495 234.678 9.12546 235.525 8.35409C237.163 6.90443 239.495 6.70495 242.52 7.75561C244.043 8.2876 245.392 8.96588 246.567 9.79044V1.15241L211.188 1.15235Z"/>
    </mask>
    <path d="M22.8601 14.1403L21.7907 13.7214C20.9235 13.4022 20.2395 13.1229 19.7385 12.8835C18.2354 12.152 17.3009 11.3008 16.9347 10.33C16.5108 9.18623 16.742 8.18891 17.6284 7.33767C18.6112 6.42 20.0275 6.09418 21.8773 6.36015C23.0142 6.50644 23.8235 6.72587 24.3052 7.01849C24.7677 7.29778 25.1917 7.79651 25.5771 8.51468C25.1917 8.03589 24.5654 7.7167 23.6982 7.55711C22.8504 7.38421 22.0892 7.43076 21.4148 7.69674C20.2586 8.16222 19.7287 8.86045 19.8251 9.79144C19.9214 10.6692 20.4706 11.4273 21.4726 12.0657C22.6288 12.8105 24.0933 13.1363 25.8662 13.0432C27.6776 12.9368 29.0652 12.4381 30.0286 11.547C30.7416 10.8953 31.1944 10.0176 31.3871 8.91362C31.522 8.07574 31.5028 7.15143 31.3293 6.14071C30.8861 3.66707 28.8339 1.90494 25.1726 0.85412C20.914 -0.0502524 16.4627 -0.236435 11.8187 0.295554C8.94755 0.707855 6.5387 1.57897 4.59261 2.90892C2.51147 4.30537 1.29743 5.99438 0.950543 7.97612C0.680775 9.35926 0.883109 10.6694 1.55754 11.9061C2.28978 13.236 3.50378 14.3865 5.19961 15.3574C5.9126 15.783 7.09769 16.2884 8.75496 16.8735L9.79551 17.2326L10.8361 17.5917C11.6069 17.8843 12.2717 18.1503 12.8305 18.3897C15.9715 19.7196 17.4552 21.3422 17.2818 23.2573C17.2047 24.0952 17.0024 24.7801 16.6748 25.3122C16.2508 26.0037 15.586 26.4493 14.6804 26.6488C12.6763 27.101 11.1733 26.549 10.1714 24.993V25.0129L10.2003 25.0329C10.2195 25.0462 10.2292 25.0395 10.2292 25.0129C11.1541 25.8641 12.1947 26.0836 13.3509 25.6713C14.43 25.2989 15.0466 24.614 15.2008 23.6164C15.432 22.3397 14.9021 21.3289 13.611 20.5841C12.5319 19.959 11.0674 19.58 9.21743 19.447C6.61601 19.2741 4.31329 19.8659 2.3092 21.2224C0.228052 22.6588 -0.446374 24.3212 0.285887 26.2098C1.01812 28.085 2.67533 29.5414 5.25751 30.5787C7.60841 31.5097 10.3641 31.9619 13.5243 31.9353C18.9005 31.9087 22.9087 31.4166 25.5486 30.459C28.3813 29.435 30.4045 28.0651 31.6186 26.3495C33.2373 24.0487 33.1024 21.7346 31.214 19.4072C29.6338 17.4921 27.1868 15.8697 23.8721 14.5396L22.8601 14.1403ZM58.2828 22.8382C57.1266 22.3062 56.404 21.6147 56.1149 20.7635C55.8452 19.9523 55.9897 19.1742 56.5485 18.4294C57.1266 17.658 58.0033 17.1061 59.1788 16.7736C59.4486 17.5317 60.0363 18.1568 60.9419 18.6488C61.8476 19.1542 62.8786 19.4069 64.0347 19.4069C65.4221 19.4069 66.6072 19.0678 67.59 18.3895C68.5535 17.7112 69.0352 16.8999 69.0352 15.9557C69.0352 15.2242 68.7366 14.5592 68.1392 13.9608C67.5226 13.2692 66.3568 12.7439 64.6419 12.3848C62.7534 11.9858 60.8361 11.9791 58.8897 12.3648C57.406 12.6574 55.951 13.1695 54.5252 13.9009C54.8527 11.8395 55.8644 10.124 57.5602 8.75407C59.2752 7.37092 61.2694 6.67939 63.5435 6.67939C65.1621 6.67939 66.6652 7.05177 68.0525 7.79656C69.4014 8.51473 70.4901 9.48562 71.3186 10.7092C71.6077 8.44842 72.0027 6.1807 72.5037 3.90644C72.6579 3.18827 72.8217 2.51663 72.9951 1.89155C73.0337 1.69206 73.0818 1.51251 73.1396 1.35292C73.1396 1.29972 73.1493 1.24651 73.1685 1.19331V1.15341H73.1975H41.4326C43.533 6.68595 44.2556 12.9635 43.6004 19.9857C43.3885 22.3662 43.0223 24.6872 42.5021 26.948C42.3286 27.7725 42.1359 28.5439 41.924 29.2621C41.7698 29.8207 41.6253 30.2529 41.4904 30.5588H73.0836C71.754 27.8988 71.0025 24.5076 70.8291 20.3846C69.9619 21.4219 68.9117 22.2332 67.6783 22.8184C66.3872 23.4302 65.0094 23.736 63.5449 23.736C61.3675 23.736 59.6124 23.4367 58.2828 22.8382ZM110.007 22.5788C106.732 23.9087 103.562 23.8688 100.498 22.459C97.6457 21.1557 95.8634 19.2073 95.1504 16.614C94.6879 14.9382 94.8131 13.3089 95.5261 11.7263C96.3162 9.98409 97.6747 8.70051 99.6018 7.87603C100.43 7.51695 101.163 7.25095 101.799 7.07805C102.666 6.82536 103.465 6.69235 104.198 6.67905C104.949 6.67905 105.653 6.76549 106.308 6.93838C107.098 7.13788 107.657 7.43048 107.984 7.81616C108.215 8.09545 108.341 8.35479 108.36 8.59418V8.57423C107.705 7.74967 106.712 7.35733 105.383 7.39723C103.822 7.45043 102.752 7.98907 102.174 9.01313C101.866 9.57172 101.953 10.1901 102.434 10.8684C102.877 11.4935 103.484 11.959 104.255 12.2648C105.778 12.8633 107.368 13.0961 109.024 12.9631C110.778 12.8301 112.194 12.3047 113.273 11.3871C114.352 10.496 114.988 9.1594 115.181 7.37725C115.47 4.71731 113.919 2.78235 110.527 1.57199C107.772 0.587824 104.245 0.188843 99.9482 0.375025C96.4796 0.521313 93.2711 1.31929 90.3229 2.76899C87.2784 4.25855 84.8599 6.14699 83.0677 8.43453C81.2564 10.7221 80.341 13.0827 80.3218 15.5165C80.3025 18.1499 80.9577 20.5372 82.2873 22.6784C83.771 25.0724 85.9776 26.9542 88.9063 28.3242C93.1069 30.2925 97.9439 31.2102 103.416 31.0772C106.114 31.0108 108.619 30.5852 110.932 29.8005C113.591 28.8961 115.421 27.6725 116.424 26.1298C117.021 25.1988 117.252 24.0351 117.117 22.6386C116.963 21.2156 116.472 20.0851 115.643 19.2471C113.369 20.8697 111.491 21.9802 110.007 22.5788ZM137.77 12.6242C137.558 10.975 137.443 9.25271 137.423 7.45728C139.736 7.37748 141.692 7.51049 143.291 7.85626C145.276 8.29514 146.191 8.99337 146.037 9.95096C145.671 12.2252 142.915 13.1163 137.77 12.6242ZM162.311 22.3396C161.906 22.7651 161.396 23.1442 160.779 23.4767C159.546 24.155 158.38 24.2813 157.282 23.8557C156.685 23.6429 156.145 23.2838 155.663 22.7785C155.297 22.4194 154.921 21.9472 154.536 21.3621C154.536 21.3488 154.401 21.1293 154.131 20.7037L153.38 19.5068L152.57 18.3298C152.089 17.6515 151.54 17.033 150.923 16.4745C152.676 16.0888 153.871 15.7962 154.507 15.5967C156.28 15.0647 157.609 14.2202 158.496 13.0632C159.267 12.079 159.652 10.9885 159.652 9.79144C159.652 9.51214 159.633 9.22621 159.594 8.93362C159.536 8.52132 159.44 8.1157 159.305 7.71672C158.958 6.62614 158.361 5.65532 157.513 4.80408C155.066 2.34372 150.856 1.11354 144.882 1.11354H124.533C126.633 10.9552 126.614 20.6506 124.475 30.1991C124.456 30.2656 124.437 30.3254 124.417 30.3786V30.4385H141.529C140.18 26.5949 139.294 22.5052 138.87 18.1696L139.419 18.2893C141.211 18.7946 142.512 19.679 143.321 20.9425C143.629 21.4345 143.899 22.0197 144.13 22.698L144.391 23.6157L144.622 24.5134L144.824 25.2116L145.027 25.9099C145.181 26.4285 145.344 26.8874 145.518 27.2864C145.98 28.2838 146.597 29.0951 147.368 29.7202C149.449 31.4358 152.041 32.1474 155.143 31.8547C156.627 31.7084 157.966 31.3227 159.161 30.6977C160.356 30.0593 161.281 29.248 161.936 28.2638C162.148 27.9181 162.331 27.5523 162.485 27.1667C162.967 25.9032 162.996 24.5333 162.572 23.0571L162.311 22.3396ZM187.154 22.8382C185.998 22.3062 185.275 21.6147 184.986 20.7635C184.716 19.9523 184.861 19.1742 185.419 18.4294C185.998 17.658 186.874 17.1061 188.05 16.7736C188.32 17.5317 188.907 18.1568 189.813 18.6488C190.719 19.1542 191.75 19.4069 192.906 19.4069C194.293 19.4069 195.478 19.0678 196.461 18.3895C197.424 17.7112 197.906 16.8999 197.906 15.9557C197.906 15.2242 197.608 14.5592 197.01 13.9608C196.394 13.2692 195.228 12.7439 193.513 12.3848C191.624 11.9858 189.707 11.9791 187.761 12.3648C186.277 12.6574 184.822 13.1695 183.396 13.9009C183.724 11.8395 184.735 10.124 186.431 8.75407C188.146 7.37092 190.14 6.67939 192.414 6.67939C194.033 6.67939 195.536 7.05177 196.923 7.79656C198.272 8.51473 199.361 9.48562 200.19 10.7092C200.479 8.44842 200.874 6.1807 201.375 3.90644C201.529 3.18827 201.693 2.51663 201.866 1.89155C201.905 1.69206 201.953 1.51251 202.011 1.35292C202.011 1.29972 202.02 1.24651 202.04 1.19331V1.15341H202.068H170.304C172.404 6.68595 173.127 12.9635 172.471 19.9857C172.259 22.3662 171.893 24.6872 171.373 26.948C171.2 27.7725 171.007 28.5439 170.795 29.2621C170.641 29.8207 170.496 30.2529 170.361 30.5588H201.955C200.625 27.8988 199.873 24.5076 199.7 20.3846C198.833 21.4219 197.783 22.2332 196.549 22.8184C195.258 23.4302 193.88 23.736 192.416 23.736C190.238 23.736 188.483 23.4367 187.154 22.8382ZM211.188 1.15235L211.188 9.87025C211.939 8.96588 212.932 8.22111 214.165 7.63582C215.437 7.05064 216.699 6.75805 217.952 6.75805C220.437 6.75805 222.2 7.59593 223.241 9.27173C223.916 10.3623 224.253 11.7919 224.253 13.5608C224.253 14.1859 224.214 14.9373 224.137 15.8151L224.022 16.9123C223.983 17.3511 223.954 17.6903 223.935 17.9297C223.781 19.7916 223.415 21.9062 222.836 24.2736C222.625 25.1913 222.345 26.242 221.998 27.4257L221.131 30.5577H237.173C237.038 30.5577 236.74 29.5603 236.277 27.5654C236.123 26.9403 235.959 26.2155 235.786 25.3909L235.67 24.952L235.641 24.7525L235.612 24.5929C235.554 24.3535 235.516 24.2138 235.497 24.174C234.899 21.5406 234.437 18.402 234.109 14.7578L234.022 13.9399L233.965 13.122C233.926 12.4836 233.945 11.9184 234.022 11.4263C234.177 10.1495 234.678 9.12546 235.525 8.35409C237.163 6.90443 239.495 6.70495 242.52 7.75561C244.043 8.2876 245.392 8.96588 246.567 9.79044V1.15241L211.188 1.15235Z" fill="#FF0000" stroke="#5C0000" stroke-width="4" mask="url(#path-1-inside-1_19_52)"/>
    <mask id="path-2-inside-2_19_52" fill="white">
        <path d="M26.4313 55.3493L25.1948 54.8649C24.1922 54.4958 23.4012 54.1729 22.8219 53.8961C21.0841 53.0504 20.0035 52.0662 19.5802 50.9437C19.09 49.6213 19.3574 48.4682 20.3823 47.4839C21.5186 46.4229 23.1561 46.0462 25.2949 46.3537C26.6094 46.5229 27.5451 46.7766 28.1021 47.1149C28.6368 47.4378 29.127 48.0145 29.5726 48.8448C29.127 48.2912 28.4029 47.9222 27.4003 47.7377C26.42 47.5377 25.5399 47.5916 24.7602 47.8991C23.4234 48.4373 22.8107 49.2446 22.9221 50.321C23.0335 51.3359 23.6685 52.2124 24.827 52.9506C26.1638 53.8117 27.8571 54.1884 29.9069 54.0808C32.0012 53.9578 33.6056 53.3811 34.7196 52.3508C35.5439 51.5974 36.0675 50.5825 36.2903 49.3061C36.4463 48.3373 36.424 47.2686 36.2235 46.1C35.711 43.2399 33.3382 41.2025 29.105 39.9875C24.1811 38.9419 19.0344 38.7266 13.665 39.3417C10.3453 39.8184 7.56015 40.8256 5.31005 42.3633C2.9038 43.9779 1.50011 45.9308 1.09903 48.2221C0.787123 49.8213 1.02106 51.3361 1.80086 52.766C2.64748 54.3037 4.05113 55.6339 6.01188 56.7565C6.83625 57.2485 8.20646 57.8329 10.1226 58.5095L11.3257 58.9246L12.5288 59.3398C13.4201 59.6781 14.1887 59.9857 14.8348 60.2625C18.4665 61.8002 20.182 63.6762 19.9815 65.8905C19.8923 66.8592 19.6584 67.6512 19.2796 68.2663C18.7895 69.066 18.0208 69.5811 16.9737 69.8118C14.6566 70.3346 12.9187 69.6964 11.7603 67.8973V67.9204L11.7937 67.9434C11.816 67.9588 11.8271 67.9511 11.8271 67.9204C12.8966 68.9045 14.0997 69.1582 15.4365 68.6816C16.6842 68.251 17.3971 67.4591 17.5754 66.3057C17.8427 64.8295 17.23 63.6608 15.7373 62.7996C14.4896 62.0769 12.7963 61.6387 10.6573 61.4849C7.64954 61.285 4.9871 61.9693 2.66993 63.5377C0.263678 65.1985 -0.516105 67.1206 0.330548 69.3042C1.17717 71.4723 3.09326 73.1562 6.07882 74.3556C8.79697 75.432 11.9831 75.9549 15.637 75.9241C21.8531 75.8934 26.4875 75.3244 29.5397 74.2172C32.8149 73.0332 35.1542 71.4493 36.558 69.4657C38.4295 66.8055 38.2735 64.1299 36.0901 61.439C34.2631 59.2246 31.4338 57.3488 27.6013 55.8109L26.4313 55.3493ZM68.6574 49.329C70.3729 52.7583 71.6763 55.9795 72.5676 58.9935C70.0722 59.5932 67.4209 59.747 64.6137 59.4548C65.5272 56.3024 66.8751 52.9271 68.6574 49.329ZM92.0834 74.3324C92.0388 74.194 90.1951 70.4727 86.5524 63.1684C82.9097 55.8642 81.6453 48.2526 82.7592 40.3333H54.5863C55.0319 49.4981 53.5948 57.4212 50.275 64.1014C46.9552 70.7817 45.2731 74.1928 45.2286 74.3312H64.7793C63.7099 72.2245 63.2309 69.7105 63.3423 66.7886C67.4417 67.6036 70.9844 67.542 73.9699 66.604C74.1036 69.6025 73.6357 72.1784 72.5663 74.3311L92.0834 74.3324ZM129.365 40.3324C129.654 41.0858 130.022 42.9928 130.468 46.0527C130.98 49.5895 131.303 52.8877 131.437 55.948C128.184 53.0573 125.911 50.4813 124.619 48.221C123.483 46.2835 122.636 43.7232 122.079 40.54H103.598C105.581 46.9061 106.015 54.4331 104.901 63.1212C104.567 65.8429 104.088 68.5263 103.464 71.1712C103.264 71.9862 103.063 72.755 102.863 73.4777C102.796 73.7084 102.74 73.916 102.696 74.1005L102.662 74.1927V74.2619L102.629 74.3081V74.3311H119.639C117.991 71.4404 117.133 68.1034 117.066 64.3206C117.066 63.1058 117.133 61.9602 117.267 60.8837C117.334 60.4993 117.4 60.184 117.467 59.938C117.512 59.7073 117.545 59.6074 117.567 59.6382C117.545 59.6228 117.567 59.6304 117.634 59.6612L117.835 59.7996C118.08 59.9841 118.358 60.2071 118.67 60.4685C119.651 61.2835 120.62 62.2215 121.578 63.2825C122.915 64.7279 124.107 66.2734 125.154 67.9187C126.468 69.9793 127.515 72.1166 128.295 74.3309H146.743L146.709 74.3078V74.2617L146.643 74.0772C146.598 73.8465 146.542 73.6005 146.475 73.3391C146.253 72.5087 146.041 71.6245 145.84 70.6866C145.194 67.6882 144.704 64.7357 144.37 61.8294C143.323 52.5262 144.069 45.3603 146.609 40.332L129.365 40.3324ZM157.287 40.3324L157.287 50.4121C158.156 49.3665 159.303 48.5054 160.729 47.8287C162.2 47.1521 163.659 46.8138 165.107 46.8138C167.981 46.8138 170.02 47.7825 171.223 49.7201C172.003 50.9811 172.393 52.634 172.393 54.6792C172.393 55.402 172.348 56.2708 172.259 57.2856L172.126 58.5542C172.081 59.0617 172.048 59.4538 172.025 59.7306C171.847 61.8834 171.424 64.3283 170.755 67.0656C170.51 68.1266 170.187 69.3414 169.786 70.71L168.784 74.3314H187.332C187.176 74.3314 186.83 73.1781 186.296 70.8716C186.117 70.1489 185.928 69.3108 185.727 68.3573L185.594 67.8499L185.56 67.6192L185.527 67.4347C185.46 67.1579 185.415 66.9964 185.393 66.9503C184.702 63.9056 184.168 60.2767 183.789 56.0632L183.689 55.1175L183.622 54.1718C183.577 53.4337 183.6 52.7802 183.689 52.2113C183.867 50.735 184.446 49.551 185.427 48.6591C187.32 46.983 190.016 46.7524 193.514 47.9672C195.274 48.5823 196.834 49.3665 198.193 50.3199V40.3324L157.287 40.3324ZM223.141 49.329C224.857 52.7583 226.16 55.9795 227.051 58.9935C224.556 59.5932 221.905 59.747 219.097 59.4548C220.011 56.3024 221.359 52.9271 223.141 49.329ZM246.567 74.3324C246.522 74.194 244.679 70.4727 241.036 63.1684C237.393 55.8642 236.129 48.2526 237.243 40.3333H209.07C209.516 49.4981 208.078 57.4212 204.759 64.1014C201.439 70.7817 199.757 74.1928 199.712 74.3312H219.263C218.194 72.2245 217.715 69.7105 217.826 66.7886C221.925 67.6036 225.468 67.542 228.454 66.604C228.587 69.6025 228.119 72.1784 227.05 74.3311L246.567 74.3324Z"/>
    </mask>
    <path d="M26.4313 55.3493L25.1948 54.8649C24.1922 54.4958 23.4012 54.1729 22.8219 53.8961C21.0841 53.0504 20.0035 52.0662 19.5802 50.9437C19.09 49.6213 19.3574 48.4682 20.3823 47.4839C21.5186 46.4229 23.1561 46.0462 25.2949 46.3537C26.6094 46.5229 27.5451 46.7766 28.1021 47.1149C28.6368 47.4378 29.127 48.0145 29.5726 48.8448C29.127 48.2912 28.4029 47.9222 27.4003 47.7377C26.42 47.5377 25.5399 47.5916 24.7602 47.8991C23.4234 48.4373 22.8107 49.2446 22.9221 50.321C23.0335 51.3359 23.6685 52.2124 24.827 52.9506C26.1638 53.8117 27.8571 54.1884 29.9069 54.0808C32.0012 53.9578 33.6056 53.3811 34.7196 52.3508C35.5439 51.5974 36.0675 50.5825 36.2903 49.3061C36.4463 48.3373 36.424 47.2686 36.2235 46.1C35.711 43.2399 33.3382 41.2025 29.105 39.9875C24.1811 38.9419 19.0344 38.7266 13.665 39.3417C10.3453 39.8184 7.56015 40.8256 5.31005 42.3633C2.9038 43.9779 1.50011 45.9308 1.09903 48.2221C0.787123 49.8213 1.02106 51.3361 1.80086 52.766C2.64748 54.3037 4.05113 55.6339 6.01188 56.7565C6.83625 57.2485 8.20646 57.8329 10.1226 58.5095L11.3257 58.9246L12.5288 59.3398C13.4201 59.6781 14.1887 59.9857 14.8348 60.2625C18.4665 61.8002 20.182 63.6762 19.9815 65.8905C19.8923 66.8592 19.6584 67.6512 19.2796 68.2663C18.7895 69.066 18.0208 69.5811 16.9737 69.8118C14.6566 70.3346 12.9187 69.6964 11.7603 67.8973V67.9204L11.7937 67.9434C11.816 67.9588 11.8271 67.9511 11.8271 67.9204C12.8966 68.9045 14.0997 69.1582 15.4365 68.6816C16.6842 68.251 17.3971 67.4591 17.5754 66.3057C17.8427 64.8295 17.23 63.6608 15.7373 62.7996C14.4896 62.0769 12.7963 61.6387 10.6573 61.4849C7.64954 61.285 4.9871 61.9693 2.66993 63.5377C0.263678 65.1985 -0.516105 67.1206 0.330548 69.3042C1.17717 71.4723 3.09326 73.1562 6.07882 74.3556C8.79697 75.432 11.9831 75.9549 15.637 75.9241C21.8531 75.8934 26.4875 75.3244 29.5397 74.2172C32.8149 73.0332 35.1542 71.4493 36.558 69.4657C38.4295 66.8055 38.2735 64.1299 36.0901 61.439C34.2631 59.2246 31.4338 57.3488 27.6013 55.8109L26.4313 55.3493ZM68.6574 49.329C70.3729 52.7583 71.6763 55.9795 72.5676 58.9935C70.0722 59.5932 67.4209 59.747 64.6137 59.4548C65.5272 56.3024 66.8751 52.9271 68.6574 49.329ZM92.0834 74.3324C92.0388 74.194 90.1951 70.4727 86.5524 63.1684C82.9097 55.8642 81.6453 48.2526 82.7592 40.3333H54.5863C55.0319 49.4981 53.5948 57.4212 50.275 64.1014C46.9552 70.7817 45.2731 74.1928 45.2286 74.3312H64.7793C63.7099 72.2245 63.2309 69.7105 63.3423 66.7886C67.4417 67.6036 70.9844 67.542 73.9699 66.604C74.1036 69.6025 73.6357 72.1784 72.5663 74.3311L92.0834 74.3324ZM129.365 40.3324C129.654 41.0858 130.022 42.9928 130.468 46.0527C130.98 49.5895 131.303 52.8877 131.437 55.948C128.184 53.0573 125.911 50.4813 124.619 48.221C123.483 46.2835 122.636 43.7232 122.079 40.54H103.598C105.581 46.9061 106.015 54.4331 104.901 63.1212C104.567 65.8429 104.088 68.5263 103.464 71.1712C103.264 71.9862 103.063 72.755 102.863 73.4777C102.796 73.7084 102.74 73.916 102.696 74.1005L102.662 74.1927V74.2619L102.629 74.3081V74.3311H119.639C117.991 71.4404 117.133 68.1034 117.066 64.3206C117.066 63.1058 117.133 61.9602 117.267 60.8837C117.334 60.4993 117.4 60.184 117.467 59.938C117.512 59.7073 117.545 59.6074 117.567 59.6382C117.545 59.6228 117.567 59.6304 117.634 59.6612L117.835 59.7996C118.08 59.9841 118.358 60.2071 118.67 60.4685C119.651 61.2835 120.62 62.2215 121.578 63.2825C122.915 64.7279 124.107 66.2734 125.154 67.9187C126.468 69.9793 127.515 72.1166 128.295 74.3309H146.743L146.709 74.3078V74.2617L146.643 74.0772C146.598 73.8465 146.542 73.6005 146.475 73.3391C146.253 72.5087 146.041 71.6245 145.84 70.6866C145.194 67.6882 144.704 64.7357 144.37 61.8294C143.323 52.5262 144.069 45.3603 146.609 40.332L129.365 40.3324ZM157.287 40.3324L157.287 50.4121C158.156 49.3665 159.303 48.5054 160.729 47.8287C162.2 47.1521 163.659 46.8138 165.107 46.8138C167.981 46.8138 170.02 47.7825 171.223 49.7201C172.003 50.9811 172.393 52.634 172.393 54.6792C172.393 55.402 172.348 56.2708 172.259 57.2856L172.126 58.5542C172.081 59.0617 172.048 59.4538 172.025 59.7306C171.847 61.8834 171.424 64.3283 170.755 67.0656C170.51 68.1266 170.187 69.3414 169.786 70.71L168.784 74.3314H187.332C187.176 74.3314 186.83 73.1781 186.296 70.8716C186.117 70.1489 185.928 69.3108 185.727 68.3573L185.594 67.8499L185.56 67.6192L185.527 67.4347C185.46 67.1579 185.415 66.9964 185.393 66.9503C184.702 63.9056 184.168 60.2767 183.789 56.0632L183.689 55.1175L183.622 54.1718C183.577 53.4337 183.6 52.7802 183.689 52.2113C183.867 50.735 184.446 49.551 185.427 48.6591C187.32 46.983 190.016 46.7524 193.514 47.9672C195.274 48.5823 196.834 49.3665 198.193 50.3199V40.3324L157.287 40.3324ZM223.141 49.329C224.857 52.7583 226.16 55.9795 227.051 58.9935C224.556 59.5932 221.905 59.747 219.097 59.4548C220.011 56.3024 221.359 52.9271 223.141 49.329ZM246.567 74.3324C246.522 74.194 244.679 70.4727 241.036 63.1684C237.393 55.8642 236.129 48.2526 237.243 40.3333H209.07C209.516 49.4981 208.078 57.4212 204.759 64.1014C201.439 70.7817 199.757 74.1928 199.712 74.3312H219.263C218.194 72.2245 217.715 69.7105 217.826 66.7886C221.925 67.6036 225.468 67.542 228.454 66.604C228.587 69.6025 228.119 72.1784 227.05 74.3311L246.567 74.3324Z" fill="#FF0000" stroke="#5C0000" stroke-width="4" mask="url(#path-2-inside-2_19_52)"/>
</svg>