<svg width="1728" height="1245" viewBox="0 0 1728 1245" fill="none" xmlns="http://www.w3.org/2000/svg">
<path d="M266.384 410.725C273.573 395.358 295.427 395.358 302.616 410.725L362.047 537.769C368.251 551.03 358.572 566.243 343.932 566.243H225.068C210.428 566.243 200.749 551.03 206.952 537.769L266.384 410.725Z" fill="#005C00"/>
<path d="M279.284 449.731C281.584 445.685 287.416 445.685 289.716 449.731L441.805 717.243C444.079 721.243 441.19 726.209 436.589 726.209H132.411C127.809 726.209 124.92 721.243 127.195 717.243L279.284 449.731Z" fill="#005C00"/>
<path d="M279.356 548.149C281.687 544.268 287.313 544.268 289.644 548.149L499.446 897.557C501.847 901.556 498.967 906.646 494.302 906.646H74.6978C70.0332 906.646 67.1526 901.556 69.5539 897.557L279.356 548.149Z" fill="#005C00"/>
<path d="M578.11 390.315C584.338 372.408 609.662 372.408 615.89 390.315L658.811 513.726C663.331 526.723 653.681 540.296 639.921 540.296H554.079C540.318 540.296 530.668 526.723 535.189 513.726L578.11 390.315Z" fill="#2A850E"/>
<path d="M585.947 434.255C590.077 424.484 603.924 424.484 608.053 434.255L716.94 691.867C720.284 699.779 714.476 708.539 705.887 708.539H488.114C479.524 708.539 473.716 699.779 477.06 691.867L585.947 434.255Z" fill="#2A850E"/>
<path d="M586.042 536.802C590.273 527.324 603.727 527.324 607.958 536.802L761.799 881.422C765.342 889.36 759.533 898.314 750.841 898.314H443.159C434.467 898.314 428.658 889.36 432.201 881.422L586.042 536.802Z" fill="#2A850E"/>
<path d="M1486.08 499.255C1492.25 481.228 1517.75 481.228 1523.92 499.255L1549.49 573.921C1553.93 586.901 1544.29 600.4 1530.57 600.4H1479.43C1465.71 600.4 1456.07 586.901 1460.51 573.921L1486.08 499.255Z" fill="#005C00"/>
<path d="M1493.92 525.821C1498.02 515.969 1511.98 515.969 1516.08 525.821L1593.81 712.589C1597.09 720.493 1591.29 729.2 1582.73 729.2H1427.27C1418.71 729.2 1412.9 720.493 1416.19 712.589L1493.92 525.821Z" fill="#005C00"/>
<path d="M1494.01 603.927C1498.22 594.365 1511.78 594.365 1515.99 603.927L1627.51 857.655C1630.99 865.585 1625.18 874.483 1616.52 874.483H1393.48C1384.82 874.483 1379.01 865.585 1382.49 857.655L1494.01 603.927Z" fill="#005C00"/>
<path d="M1566.65 569.153C1570.35 558.337 1585.65 558.337 1589.35 569.153L1626.12 676.512C1628.78 684.3 1623 692.4 1614.76 692.4H1541.24C1533 692.4 1527.22 684.3 1529.88 676.512L1566.65 569.153Z" fill="#2A850E"/>
<path d="M1566.92 617.821C1571.02 607.969 1584.98 607.969 1589.08 617.821L1666.81 804.589C1670.09 812.493 1664.29 821.2 1655.73 821.2H1500.27C1491.71 821.2 1485.9 812.493 1489.19 804.589L1566.92 617.821Z" fill="#2A850E"/>
<path d="M1567.01 695.927C1571.22 686.365 1584.78 686.365 1588.99 695.927L1700.51 949.655C1703.99 957.585 1698.18 966.483 1689.52 966.483H1466.48C1457.82 966.483 1452.01 957.585 1455.49 949.655L1567.01 695.927Z" fill="#2A850E"/>
<path d="M1405.65 505.153C1409.35 494.337 1424.65 494.337 1428.35 505.153L1465.12 612.512C1467.78 620.3 1462 628.4 1453.76 628.4H1380.24C1372 628.4 1366.22 620.3 1368.88 612.512L1405.65 505.153Z" fill="#2D661B"/>
<path d="M1405.92 553.821C1410.02 543.969 1423.98 543.969 1428.08 553.821L1505.81 740.589C1509.09 748.493 1503.29 757.2 1494.73 757.2H1339.27C1330.71 757.2 1324.9 748.493 1328.19 740.589L1405.92 553.821Z" fill="#2D661B"/>
<path d="M1406.01 631.927C1410.22 622.365 1423.78 622.365 1427.99 631.927L1539.51 885.655C1542.99 893.585 1537.18 902.483 1528.52 902.483H1305.48C1296.82 902.483 1291.01 893.585 1294.49 885.655L1406.01 631.927Z" fill="#2D661B"/>
<path d="M684.631 431.235C688.944 422.015 702.056 422.015 706.37 431.235L778.376 585.159C782.098 593.115 776.291 602.243 767.506 602.243H623.494C614.71 602.243 608.902 593.115 612.624 585.159L684.631 431.235Z" fill="#005C00"/>
<path d="M685.068 494.905C689.669 486.813 701.331 486.813 705.932 494.905L847.708 744.278C852.256 752.277 846.479 762.209 837.276 762.209H553.724C544.521 762.209 538.744 752.277 543.292 744.278L685.068 494.905Z" fill="#005C00"/>
<path d="M685.212 592.716C689.874 584.953 701.126 584.953 705.788 592.716L904.989 924.468C909.791 932.466 904.03 942.646 894.701 942.646H496.299C486.97 942.646 481.209 932.466 486.011 924.468L685.212 592.716Z" fill="#005C00"/>
<path d="M677.384 446.725C684.573 431.358 706.427 431.358 713.616 446.725L773.048 573.769C779.251 587.03 769.572 602.243 754.932 602.243H636.068C621.428 602.243 611.749 587.03 617.953 573.769L677.384 446.725Z" fill="#005C00"/>
<path d="M685.068 494.905C689.669 486.813 701.331 486.813 705.932 494.905L847.708 744.278C852.256 752.277 846.479 762.209 837.276 762.209H553.724C544.521 762.209 538.744 752.277 543.292 744.278L685.068 494.905Z" fill="#005C00"/>
<path d="M685.212 592.716C689.874 584.953 701.126 584.953 705.788 592.716L904.989 924.468C909.791 932.466 904.03 942.646 894.701 942.646H496.299C486.97 942.646 481.209 932.466 486.011 924.468L685.212 592.716Z" fill="#005C00"/>
<path d="M1188.38 400.725C1195.57 385.358 1217.43 385.358 1224.62 400.725L1284.05 527.769C1290.25 541.03 1280.57 556.243 1265.93 556.243H1147.07C1132.43 556.243 1122.75 541.03 1128.95 527.769L1188.38 400.725Z" fill="#005C00"/>
<path d="M1196.07 448.905C1200.67 440.813 1212.33 440.813 1216.93 448.905L1358.71 698.278C1363.26 706.277 1357.48 716.209 1348.28 716.209H1064.72C1055.52 716.209 1049.74 706.277 1054.29 698.278L1196.07 448.905Z" fill="#005C00"/>
<path d="M1196.21 546.716C1200.87 538.953 1212.13 538.953 1216.79 546.716L1415.99 878.468C1420.79 886.466 1415.03 896.646 1405.7 896.646H1007.3C997.97 896.646 992.209 886.466 997.011 878.468L1196.21 546.716Z" fill="#005C00"/>
<path d="M996.666 404.589C1000.4 393.845 1015.6 393.845 1019.33 404.589L1073.51 560.354C1076.22 568.152 1070.43 576.296 1062.17 576.296H953.826C945.57 576.296 939.78 568.152 942.492 560.354L996.666 404.589Z" fill="#2A850E"/>
<path d="M996.947 470.255C1001.08 460.484 1014.92 460.484 1019.05 470.255L1127.94 727.867C1131.28 735.779 1125.48 744.539 1116.89 744.539H899.114C890.524 744.539 884.716 735.779 888.06 727.867L996.947 470.255Z" fill="#2A850E"/>
<path d="M997.042 572.802C1001.27 563.324 1014.73 563.324 1018.96 572.802L1172.8 917.422C1176.34 925.36 1170.53 934.314 1161.84 934.314H854.159C845.467 934.314 839.658 925.36 843.201 917.422L997.042 572.802Z" fill="#2A850E"/>
<path d="M849.647 541.153C853.351 530.337 868.649 530.337 872.353 541.153L909.116 648.512C911.783 656.3 905.995 664.4 897.763 664.4H824.236C816.004 664.4 810.217 656.3 812.883 648.512L849.647 541.153Z" fill="#2D661B"/>
<path d="M849.921 589.821C854.021 579.969 867.979 579.969 872.079 589.821L949.806 776.589C953.095 784.493 947.288 793.2 938.727 793.2H783.273C774.712 793.2 768.905 784.493 772.194 776.589L849.921 589.821Z" fill="#2D661B"/>
<path d="M850.014 667.927C854.217 658.365 867.783 658.365 871.986 667.927L983.507 921.655C986.993 929.585 981.184 938.483 972.521 938.483H749.479C740.816 938.483 735.007 929.585 738.493 921.655L850.014 667.927Z" fill="#2D661B"/>
<ellipse cx="329" cy="658" rx="11" ry="9" fill="#61FF00"/>
<ellipse cx="361" cy="695" rx="11" ry="9" fill="#FF0000"/>
<ellipse cx="307" cy="726" rx="11" ry="9" fill="white"/>
<ellipse cx="313" cy="559" rx="11" ry="9" fill="#61FF00"/>
<ellipse cx="345" cy="596" rx="11" ry="9" fill="#FF0000"/>
<ellipse cx="291" cy="627" rx="11" ry="9" fill="white"/>
<ellipse cx="624" cy="657" rx="11" ry="9" fill="#61FF00"/>
<ellipse cx="656" cy="694" rx="11" ry="9" fill="#FF0000"/>
<ellipse cx="602" cy="725" rx="11" ry="9" fill="white"/>
<ellipse cx="624" cy="782" rx="11" ry="9" fill="#61FF00"/>
<ellipse cx="656" cy="819" rx="11" ry="9" fill="#FF0000"/>
<ellipse cx="602" cy="850" rx="11" ry="9" fill="white"/>
<ellipse cx="624" cy="782" rx="11" ry="9" fill="#61FF00"/>
<ellipse cx="656" cy="819" rx="11" ry="9" fill="#FF0000"/>
<ellipse cx="602" cy="850" rx="11" ry="9" fill="white"/>
<ellipse cx="281" cy="471" rx="11" ry="9" fill="#61FF00"/>
<ellipse cx="313" cy="508" rx="11" ry="9" fill="#FF0000"/>
<ellipse cx="259" cy="539" rx="11" ry="9" fill="white"/>
<ellipse cx="226" cy="553" rx="11" ry="9" fill="#61FF00"/>
<ellipse cx="258" cy="590" rx="11" ry="9" fill="#FF0000"/>
<ellipse cx="204" cy="621" rx="11" ry="9" fill="white"/>
<ellipse cx="705" cy="576" rx="11" ry="9" fill="#61FF00"/>
<ellipse cx="737" cy="613" rx="11" ry="9" fill="#FF0000"/>
<ellipse cx="683" cy="644" rx="11" ry="9" fill="white"/>
<ellipse cx="690" cy="478" rx="11" ry="9" fill="#61FF00"/>
<ellipse cx="722" cy="515" rx="11" ry="9" fill="#FF0000"/>
<ellipse cx="668" cy="546" rx="11" ry="9" fill="white"/>
<ellipse cx="592" cy="450" rx="11" ry="9" fill="#61FF00"/>
<ellipse cx="624" cy="487" rx="11" ry="9" fill="#FF0000"/>
<ellipse cx="570" cy="518" rx="11" ry="9" fill="white"/>
<ellipse cx="532" cy="629" rx="11" ry="9" fill="#61FF00"/>
<ellipse cx="564" cy="666" rx="11" ry="9" fill="#FF0000"/>
<ellipse cx="510" cy="697" rx="11" ry="9" fill="white"/>
<ellipse cx="516" cy="745" rx="11" ry="9" fill="#61FF00"/>
<ellipse cx="548" cy="782" rx="11" ry="9" fill="#FF0000"/>
<ellipse cx="494" cy="813" rx="11" ry="9" fill="white"/>
<ellipse cx="242" cy="637.942" rx="11" ry="9.94186" fill="#61FF00"/>
<ellipse cx="274" cy="678.814" rx="11" ry="9.94186" fill="#FF0000"/>
<ellipse cx="220" cy="713.058" rx="11" ry="9.94186" fill="white"/>
<ellipse cx="1256" cy="562.942" rx="11" ry="9.94186" fill="#61FF00"/>
<ellipse cx="1288" cy="603.814" rx="11" ry="9.94186" fill="#FF0000"/>
<ellipse cx="1234" cy="638.058" rx="11" ry="9.94186" fill="white"/>
<ellipse cx="1276" cy="720.942" rx="11" ry="9.94186" fill="#61FF00"/>
<ellipse cx="1308" cy="761.814" rx="11" ry="9.94186" fill="#FF0000"/>
<ellipse cx="1254" cy="796.058" rx="11" ry="9.94186" fill="white"/>
<ellipse cx="1181.77" cy="543.629" rx="11" ry="9.94186" transform="rotate(-132.662 1181.77 543.629)" fill="#61FF00"/>
<ellipse cx="1190.14" cy="492.4" rx="11" ry="9.94186" transform="rotate(-132.662 1190.14 492.4)" fill="#FF0000"/>
<ellipse cx="1251.92" cy="508.903" rx="11" ry="9.94186" transform="rotate(-132.662 1251.92 508.903)" fill="white"/>
<ellipse cx="993" cy="735.942" rx="11" ry="9.94186" fill="#61FF00"/>
<ellipse cx="1025" cy="776.814" rx="11" ry="9.94186" fill="#FF0000"/>
<ellipse cx="971" cy="811.058" rx="11" ry="9.94186" fill="white"/>
<ellipse cx="993" cy="735.942" rx="11" ry="9.94186" fill="#61FF00"/>
<ellipse cx="1025" cy="776.814" rx="11" ry="9.94186" fill="#FF0000"/>
<ellipse cx="971" cy="811.058" rx="11" ry="9.94186" fill="white"/>
<ellipse cx="993" cy="735.942" rx="11" ry="9.94186" fill="#61FF00"/>
<ellipse cx="1025" cy="776.814" rx="11" ry="9.94186" fill="#FF0000"/>
<ellipse cx="971" cy="811.058" rx="11" ry="9.94186" fill="white"/>
<ellipse cx="993" cy="735.942" rx="11" ry="9.94186" fill="#61FF00"/>
<ellipse cx="1025" cy="776.814" rx="11" ry="9.94186" fill="#FF0000"/>
<ellipse cx="971" cy="811.058" rx="11" ry="9.94186" fill="white"/>
<ellipse cx="742" cy="673.942" rx="11" ry="9.94186" fill="#61FF00"/>
<ellipse cx="774" cy="714.814" rx="11" ry="9.94186" fill="#FF0000"/>
<ellipse cx="720" cy="749.058" rx="11" ry="9.94186" fill="white"/>
<ellipse cx="1155" cy="573.942" rx="11" ry="9.94186" fill="#61FF00"/>
<ellipse cx="1187" cy="614.814" rx="11" ry="9.94186" fill="#FF0000"/>
<ellipse cx="1133" cy="649.058" rx="11" ry="9.94186" fill="white"/>
<ellipse cx="1122" cy="761.942" rx="11" ry="9.94186" fill="white"/>
<ellipse cx="1006" cy="489.942" rx="11" ry="9.94186" fill="#61FF00"/>
<ellipse cx="1038" cy="530.814" rx="11" ry="9.94186" fill="#FF0000"/>
<ellipse cx="984" cy="565.058" rx="11" ry="9.94186" fill="white"/>
<ellipse cx="1058" cy="663.942" rx="11" ry="9.94186" fill="#61FF00"/>
<ellipse cx="1090" cy="704.814" rx="11" ry="9.94186" fill="#FF0000"/>
<ellipse cx="1036" cy="739.058" rx="11" ry="9.94186" fill="white"/>
<ellipse cx="962" cy="609.942" rx="11" ry="9.94186" fill="#61FF00"/>
<ellipse cx="994" cy="650.814" rx="11" ry="9.94186" fill="#FF0000"/>
<ellipse cx="940" cy="685.058" rx="11" ry="9.94186" fill="white"/>
<ellipse cx="1480.39" cy="562.69" rx="11" ry="9.94186" transform="rotate(-36.7431 1480.39 562.69)" fill="#61FF00"/>
<ellipse cx="1530.48" cy="576.299" rx="11" ry="9.94186" transform="rotate(-36.7431 1530.48 576.299)" fill="#FF0000"/>
<ellipse cx="1507.7" cy="636.044" rx="11" ry="9.94186" transform="rotate(-36.7431 1507.7 636.044)" fill="white"/>
<path d="M1192.16 629.814C1196.5 620.68 1209.5 620.68 1213.84 629.814L1250.19 706.337C1253.98 714.3 1248.17 723.487 1239.36 723.487H1166.64C1157.83 723.487 1152.02 714.3 1155.81 706.337L1192.16 629.814Z" fill="#2D661B"/>
<path d="M1192.61 666.112C1197.23 658.112 1208.77 658.112 1213.39 666.112L1291.52 801.417C1296.14 809.417 1290.36 819.417 1281.12 819.417H1124.88C1115.64 819.417 1109.86 809.417 1114.48 801.417L1192.61 666.112Z" fill="#2D661B"/>
<path d="M1192.75 724.3C1197.43 716.63 1208.57 716.63 1213.25 724.3L1326.11 909.377C1330.98 917.374 1325.23 927.625 1315.86 927.625H1090.14C1080.77 927.625 1075.02 917.373 1079.89 909.377L1192.75 724.3Z" fill="#2D661B"/>
<path d="M187.666 586.589C191.403 575.845 206.598 575.845 210.334 586.589L264.508 742.354C267.22 750.152 261.43 758.296 253.174 758.296H144.827C136.57 758.296 130.78 750.152 133.493 742.354L187.666 586.589Z" fill="#2A850E"/>
<path d="M187.947 652.255C192.077 642.484 205.923 642.484 210.053 652.255L318.94 909.867C322.284 917.779 316.476 926.539 307.887 926.539H90.1134C81.5241 926.539 75.7161 917.779 79.0601 909.867L187.947 652.255Z" fill="#2A850E"/>
<path d="M188.042 754.802C192.273 745.324 205.727 745.324 209.958 754.802L363.799 1099.42C367.342 1107.36 361.533 1116.31 352.841 1116.31H45.1592C36.4668 1116.31 30.6582 1107.36 34.2015 1099.42L188.042 754.802Z" fill="#2A850E"/>
<ellipse cx="346" cy="775" rx="11" ry="9" fill="#61FF00"/>
<ellipse cx="378" cy="812" rx="11" ry="9" fill="#FF0000"/>
<ellipse cx="324" cy="843" rx="11" ry="9" fill="white"/>
<path d="M451.647 492.153C455.351 481.337 470.649 481.337 474.353 492.153L511.116 599.512C513.783 607.3 507.996 615.4 499.764 615.4H426.237C418.005 615.4 412.217 607.3 414.884 599.512L451.647 492.153Z" fill="#2D661B"/>
<path d="M451.921 540.821C456.021 530.969 469.979 530.969 474.079 540.821L551.806 727.589C555.095 735.493 549.288 744.2 540.727 744.2H385.273C376.712 744.2 370.905 735.493 374.194 727.589L451.921 540.821Z" fill="#2D661B"/>
<path d="M452.014 618.927C456.217 609.365 469.783 609.365 473.986 618.927L585.507 872.655C588.993 880.585 583.184 889.483 574.521 889.483H351.479C342.816 889.483 337.007 880.585 340.493 872.655L452.014 618.927Z" fill="#2D661B"/>
<ellipse cx="211.529" cy="785.851" rx="11" ry="9" transform="rotate(-175.941 211.529 785.851)" fill="#61FF00"/>
<ellipse cx="182.229" cy="746.678" rx="11" ry="9" transform="rotate(-175.941 182.229 746.678)" fill="#FF0000"/>
<ellipse cx="238.288" cy="719.579" rx="11" ry="9" transform="rotate(-175.941 238.288 719.579)" fill="white"/>
<path d="M1015.27 332.527L1023.64 357.433C1024.94 361.3 1028.57 363.905 1032.65 363.905H1059.22C1063.62 363.905 1065.41 369.562 1061.81 372.088L1040.73 386.889C1037.28 389.307 1035.84 393.703 1037.18 397.692L1045.33 421.928C1046.71 426.047 1042.04 429.543 1038.48 427.046L1016.46 411.588C1013.18 409.288 1008.82 409.288 1005.54 411.588L983.522 427.046C979.965 429.543 975.286 426.047 976.671 421.928L984.821 397.692C986.162 393.703 984.719 389.307 981.275 386.889L960.191 372.088C956.593 369.562 958.38 363.905 962.777 363.905H989.355C993.435 363.905 997.059 361.3 998.359 357.433L1006.73 332.527C1008.11 328.44 1013.89 328.44 1015.27 332.527Z" fill="#D6CD00" stroke="#D68000" stroke-width="5"/>
<path d="M1015.27 332.527L1023.64 357.433C1024.94 361.3 1028.57 363.905 1032.65 363.905H1059.22C1063.62 363.905 1065.41 369.562 1061.81 372.088L1040.73 386.889C1037.28 389.307 1035.84 393.703 1037.18 397.692L1045.33 421.928C1046.71 426.047 1042.04 429.543 1038.48 427.046L1016.46 411.588C1013.18 409.288 1008.82 409.288 1005.54 411.588L983.522 427.046C979.965 429.543 975.286 426.047 976.671 421.928L984.821 397.692C986.162 393.703 984.719 389.307 981.275 386.889L960.191 372.088C956.593 369.562 958.38 363.905 962.777 363.905H989.355C993.435 363.905 997.059 361.3 998.359 357.433L1006.73 332.527C1008.11 328.44 1013.89 328.44 1015.27 332.527Z" fill="#D6CD00" stroke="#D68000" stroke-width="5"/>
<path d="M1499.27 420.527L1507.64 445.433C1508.94 449.3 1512.57 451.905 1516.65 451.905H1543.22C1547.62 451.905 1549.41 457.562 1545.81 460.088L1524.73 474.889C1521.28 477.307 1519.84 481.703 1521.18 485.692L1529.33 509.928C1530.71 514.047 1526.04 517.543 1522.48 515.046L1500.46 499.588C1497.18 497.288 1492.82 497.288 1489.54 499.588L1467.52 515.046C1463.96 517.543 1459.29 514.047 1460.67 509.928L1468.82 485.692C1470.16 481.703 1468.72 477.307 1465.27 474.889L1444.19 460.088C1440.59 457.562 1442.38 451.905 1446.78 451.905H1473.35C1477.43 451.905 1481.06 449.3 1482.36 445.433L1490.73 420.527C1492.11 416.44 1497.89 416.44 1499.27 420.527Z" fill="#D6CD00" stroke="#D68000" stroke-width="5"/>
<path d="M698.265 357.527L706.641 382.433C707.941 386.3 711.565 388.905 715.645 388.905H742.223C746.62 388.905 748.407 394.562 744.809 397.088L723.725 411.889C720.281 414.307 718.838 418.703 720.179 422.692L728.329 446.928C729.714 451.047 725.035 454.543 721.478 452.046L699.458 436.588C696.183 434.288 691.817 434.288 688.542 436.588L666.522 452.046C662.965 454.543 658.286 451.047 659.671 446.928L667.821 422.692C669.162 418.703 667.719 414.307 664.275 411.889L643.191 397.088C639.593 394.562 641.38 388.905 645.777 388.905H672.355C676.435 388.905 680.059 386.3 681.359 382.433L689.735 357.527C691.109 353.44 696.891 353.44 698.265 357.527Z" fill="#D6CD00" stroke="#D68000" stroke-width="5"/>
</svg>
