<svg width="1040" height="1112" viewBox="0 0 1040 1112" fill="none" xmlns="http://www.w3.org/2000/svg">
<path d="M553.661 99.1625C560.633 83.1326 583.368 83.1327 590.341 99.1625L695.508 340.935C701.254 354.145 691.573 368.913 677.168 368.913H466.833C452.428 368.913 442.747 354.145 448.493 340.935L553.661 99.1625Z" fill="#2A850E"/>
<path d="M554.319 200.534C561.827 186.33 582.173 186.33 589.681 200.534L798.973 596.435C806.014 609.755 796.358 625.783 781.292 625.783H362.708C347.642 625.783 337.986 609.755 345.027 596.435L554.319 200.534Z" fill="#2A850E"/>
<path d="M554.537 357.378C562.168 343.711 581.832 343.711 589.463 357.378L884.48 885.776C891.923 899.107 882.285 915.525 867.017 915.525H276.983C261.715 915.525 252.077 899.107 259.52 885.776L554.537 357.378Z" fill="#2A850E"/>
<path d="M307.515 173.745C314.325 157.26 337.675 157.26 344.485 173.745L430.98 383.12C436.419 396.287 426.741 410.757 412.495 410.757H239.505C225.259 410.757 215.581 396.287 221.02 383.12L307.515 173.745Z" fill="#005C00"/>
<path d="M308.126 264.044C315.507 249.343 336.492 249.343 343.874 264.044L519.481 613.818C526.159 627.117 516.49 642.791 501.608 642.791H150.392C135.51 642.791 125.841 627.117 132.518 613.818L308.126 264.044Z" fill="#005C00"/>
<path d="M308.33 405.407C315.846 391.233 336.154 391.233 343.67 405.407L592.751 875.152C599.814 888.472 590.159 904.521 575.081 904.521H76.9184C61.8411 904.521 52.1856 888.472 59.2487 875.152L308.33 405.407Z" fill="#005C00"/>
<ellipse cx="364" cy="760.942" rx="11" ry="9.94186" fill="#61FF00"/>
<ellipse cx="396" cy="801.814" rx="11" ry="9.94186" fill="#FF0000"/>
<ellipse cx="342" cy="836.058" rx="11" ry="9.94186" fill="white"/>
<path d="M809.76 367.257C816.23 349.907 840.77 349.907 847.24 367.257L893.952 492.534C898.826 505.604 889.161 519.522 875.213 519.522H781.788C767.839 519.522 758.175 505.604 763.048 492.534L809.76 367.257Z" fill="#2D661B"/>
<path d="M810.284 428.678C817.38 413.018 839.621 413.018 846.717 428.678L950.659 658.049C956.659 671.289 946.979 686.304 932.443 686.304H724.558C710.022 686.304 700.341 671.289 706.341 658.049L810.284 428.678Z" fill="#2D661B"/>
<path d="M810.46 529.418C817.713 514.264 839.287 514.264 846.54 529.418L997.96 845.797C1004.31 859.072 994.637 874.431 979.92 874.431H677.08C662.363 874.431 652.687 859.072 659.04 845.797L810.46 529.418Z" fill="#2D661B"/>
<ellipse cx="249" cy="747.942" rx="11" ry="9.94186" fill="#61FF00"/>
<ellipse cx="281" cy="788.814" rx="11" ry="9.94186" fill="#FF0000"/>
<ellipse cx="227" cy="823.058" rx="11" ry="9.94186" fill="white"/>
<ellipse cx="439" cy="685.942" rx="11" ry="9.94186" fill="#61FF00"/>
<ellipse cx="471" cy="726.814" rx="11" ry="9.94186" fill="#FF0000"/>
<ellipse cx="417" cy="761.058" rx="11" ry="9.94186" fill="white"/>
<ellipse cx="491.493" cy="770.983" rx="11" ry="9.94186" transform="rotate(18.6709 491.493 770.983)" fill="#61FF00"/>
<ellipse cx="508.725" cy="819.948" rx="11" ry="9.94186" transform="rotate(18.6709 508.725 819.948)" fill="#FF0000"/>
<ellipse cx="446.604" cy="835.103" rx="11" ry="9.94186" transform="rotate(18.6709 446.604 835.103)" fill="white"/>
<ellipse cx="439" cy="570.942" rx="11" ry="9.94186" fill="#61FF00"/>
<ellipse cx="417" cy="646.058" rx="11" ry="9.94186" fill="white"/>
<ellipse cx="321" cy="672.942" rx="11" ry="9.94186" fill="#61FF00"/>
<ellipse cx="353" cy="713.814" rx="11" ry="9.94186" fill="#FF0000"/>
<ellipse cx="299" cy="748.058" rx="11" ry="9.94186" fill="white"/>
<ellipse cx="336" cy="557.942" rx="11" ry="9.94186" fill="#61FF00"/>
<ellipse cx="368" cy="598.814" rx="11" ry="9.94186" fill="#FF0000"/>
<ellipse cx="314" cy="633.058" rx="11" ry="9.94186" fill="white"/>
<ellipse cx="412" cy="466.942" rx="11" ry="9.94186" fill="#61FF00"/>
<ellipse cx="444" cy="507.814" rx="11" ry="9.94186" fill="#FF0000"/>
<ellipse cx="390" cy="542.058" rx="11" ry="9.94186" fill="white"/>
<ellipse cx="244" cy="614.942" rx="11" ry="9.94186" fill="#61FF00"/>
<ellipse cx="276" cy="655.814" rx="11" ry="9.94186" fill="#FF0000"/>
<ellipse cx="222" cy="690.058" rx="11" ry="9.94186" fill="white"/>
<ellipse cx="238" cy="494.942" rx="11" ry="9.94186" fill="#61FF00"/>
<ellipse cx="270" cy="535.814" rx="11" ry="9.94186" fill="#FF0000"/>
<ellipse cx="216" cy="570.058" rx="11" ry="9.94186" fill="white"/>
<ellipse cx="325" cy="227.942" rx="11" ry="9.94186" fill="#61FF00"/>
<ellipse cx="357" cy="268.814" rx="11" ry="9.94186" fill="#FF0000"/>
<ellipse cx="303" cy="303.058" rx="11" ry="9.94186" fill="white"/>
<ellipse cx="282" cy="350.942" rx="11" ry="9.94186" fill="#61FF00"/>
<ellipse cx="314" cy="391.814" rx="11" ry="9.94186" fill="#FF0000"/>
<ellipse cx="260" cy="426.058" rx="11" ry="9.94186" fill="white"/>
<ellipse cx="368" cy="323.942" rx="11" ry="9.94186" fill="#61FF00"/>
<ellipse cx="400" cy="364.814" rx="11" ry="9.94186" fill="#FF0000"/>
<ellipse cx="346" cy="399.058" rx="11" ry="9.94186" fill="white"/>
<ellipse cx="326" cy="435.942" rx="11" ry="9.94186" fill="#61FF00"/>
<ellipse cx="358" cy="476.814" rx="11" ry="9.94186" fill="#FF0000"/>
<ellipse cx="304" cy="511.058" rx="11" ry="9.94186" fill="white"/>
<ellipse cx="840" cy="492.942" rx="11" ry="9.94186" fill="#61FF00"/>
<ellipse cx="872" cy="533.814" rx="11" ry="9.94186" fill="#FF0000"/>
<ellipse cx="818" cy="568.058" rx="11" ry="9.94186" fill="white"/>
<ellipse cx="774" cy="576.942" rx="11" ry="9.94186" fill="#61FF00"/>
<ellipse cx="806" cy="617.814" rx="11" ry="9.94186" fill="#FF0000"/>
<ellipse cx="752" cy="652.058" rx="11" ry="9.94186" fill="white"/>
<ellipse cx="873" cy="584.942" rx="11" ry="9.94186" fill="#61FF00"/>
<ellipse cx="905" cy="625.814" rx="11" ry="9.94186" fill="#FF0000"/>
<ellipse cx="851" cy="660.058" rx="11" ry="9.94186" fill="white"/>
<ellipse cx="796" cy="692.942" rx="11" ry="9.94186" fill="#61FF00"/>
<ellipse cx="828" cy="733.814" rx="11" ry="9.94186" fill="#FF0000"/>
<ellipse cx="774" cy="768.058" rx="11" ry="9.94186" fill="white"/>
<ellipse cx="889" cy="713.942" rx="11" ry="9.94186" fill="#61FF00"/>
<ellipse cx="921" cy="754.814" rx="11" ry="9.94186" fill="#FF0000"/>
<ellipse cx="867" cy="789.058" rx="11" ry="9.94186" fill="white"/>
<ellipse cx="724" cy="781.942" rx="11" ry="9.94186" fill="#61FF00"/>
<ellipse cx="756" cy="822.814" rx="11" ry="9.94186" fill="#FF0000"/>
<ellipse cx="702" cy="857.058" rx="11" ry="9.94186" fill="white"/>
<ellipse cx="819" cy="811.942" rx="11" ry="9.94186" fill="#61FF00"/>
<ellipse cx="851" cy="852.814" rx="11" ry="9.94186" fill="#FF0000"/>
<ellipse cx="797" cy="887.058" rx="11" ry="9.94186" fill="white"/>
<ellipse cx="927" cy="811.942" rx="11" ry="9.94186" fill="#61FF00"/>
<ellipse cx="959" cy="852.814" rx="11" ry="9.94186" fill="#FF0000"/>
<ellipse cx="905" cy="887.058" rx="11" ry="9.94186" fill="white"/>
<ellipse cx="249" cy="747.942" rx="11" ry="9.94186" fill="#61FF00"/>
<ellipse cx="281" cy="788.814" rx="11" ry="9.94186" fill="#FF0000"/>
<ellipse cx="227" cy="823.058" rx="11" ry="9.94186" fill="white"/>
<ellipse cx="824" cy="397.942" rx="11" ry="9.94186" fill="#61FF00"/>
<ellipse cx="856" cy="438.814" rx="11" ry="9.94186" fill="#FF0000"/>
<ellipse cx="802" cy="473.058" rx="11" ry="9.94186" fill="white"/>
<ellipse cx="594" cy="805.942" rx="11" ry="9.94186" fill="#61FF00"/>
<ellipse cx="626" cy="846.814" rx="11" ry="9.94186" fill="#FF0000"/>
<ellipse cx="572" cy="881.058" rx="11" ry="9.94186" fill="white"/>
<ellipse cx="666" cy="700.942" rx="11" ry="9.94186" fill="#61FF00"/>
<ellipse cx="698" cy="741.814" rx="11" ry="9.94186" fill="#FF0000"/>
<ellipse cx="644" cy="776.058" rx="11" ry="9.94186" fill="white"/>
<ellipse cx="580" cy="678.942" rx="11" ry="9.94186" fill="#61FF00"/>
<ellipse cx="612" cy="719.814" rx="11" ry="9.94186" fill="#FF0000"/>
<ellipse cx="558" cy="754.058" rx="11" ry="9.94186" fill="white"/>
<ellipse cx="670" cy="561.942" rx="11" ry="9.94186" fill="#61FF00"/>
<ellipse cx="702" cy="602.814" rx="11" ry="9.94186" fill="#FF0000"/>
<ellipse cx="648" cy="637.058" rx="11" ry="9.94186" fill="white"/>
<ellipse cx="567" cy="585.942" rx="11" ry="9.94186" fill="#61FF00"/>
<ellipse cx="599" cy="626.814" rx="11" ry="9.94186" fill="#FF0000"/>
<ellipse cx="545" cy="661.058" rx="11" ry="9.94186" fill="white"/>
<ellipse cx="676" cy="448.942" rx="11" ry="9.94186" fill="#61FF00"/>
<ellipse cx="708" cy="489.814" rx="11" ry="9.94186" fill="#FF0000"/>
<ellipse cx="654" cy="524.058" rx="11" ry="9.94186" fill="white"/>
<ellipse cx="562" cy="466.942" rx="11" ry="9.94186" fill="#61FF00"/>
<ellipse cx="594" cy="507.814" rx="11" ry="9.94186" fill="#FF0000"/>
<ellipse cx="540" cy="542.058" rx="11" ry="9.94186" fill="white"/>
<ellipse cx="632" cy="360.942" rx="11" ry="9.94186" fill="#61FF00"/>
<ellipse cx="664" cy="401.814" rx="11" ry="9.94186" fill="#FF0000"/>
<ellipse cx="610" cy="436.058" rx="11" ry="9.94186" fill="white"/>
<ellipse cx="506" cy="387.942" rx="11" ry="9.94186" fill="#61FF00"/>
<ellipse cx="538" cy="428.814" rx="11" ry="9.94186" fill="#FF0000"/>
<ellipse cx="484" cy="463.058" rx="11" ry="9.94186" fill="white"/>
<ellipse cx="486" cy="519.942" rx="11" ry="9.94186" fill="#61FF00"/>
<ellipse cx="518" cy="560.814" rx="11" ry="9.94186" fill="#FF0000"/>
<ellipse cx="464" cy="595.058" rx="11" ry="9.94186" fill="white"/>
<ellipse cx="517" cy="268.942" rx="11" ry="9.94186" fill="#61FF00"/>
<ellipse cx="549" cy="309.814" rx="11" ry="9.94186" fill="#FF0000"/>
<ellipse cx="495" cy="344.058" rx="11" ry="9.94186" fill="white"/>
<ellipse cx="610" cy="269.942" rx="11" ry="9.94186" fill="#61FF00"/>
<ellipse cx="642" cy="310.814" rx="11" ry="9.94186" fill="#FF0000"/>
<ellipse cx="588" cy="345.058" rx="11" ry="9.94186" fill="white"/>
<ellipse cx="567" cy="142.942" rx="11" ry="9.94186" fill="#61FF00"/>
<ellipse cx="599" cy="183.814" rx="11" ry="9.94186" fill="#FF0000"/>
<ellipse cx="545" cy="218.058" rx="11" ry="9.94186" fill="white"/>
<path d="M329.265 90.5271L337.641 115.433C338.941 119.3 342.565 121.905 346.645 121.905H373.223C377.62 121.905 379.407 127.562 375.809 130.088L354.725 144.889C351.281 147.307 349.838 151.703 351.179 155.692L359.329 179.928C360.714 184.047 356.035 187.543 352.478 185.046L330.458 169.588C327.183 167.288 322.817 167.288 319.542 169.588L297.522 185.046C293.965 187.543 289.286 184.047 290.671 179.928L298.821 155.692C300.162 151.703 298.719 147.307 295.275 144.889L274.191 130.088C270.593 127.562 272.38 121.905 276.777 121.905H303.355C307.435 121.905 311.059 119.3 312.359 115.433L320.735 90.5271C322.109 86.4395 327.891 86.4395 329.265 90.5271Z" fill="#D6CD00" stroke="#D68000" stroke-width="5"/>
<path d="M835.265 278.527L843.641 303.433C844.941 307.3 848.565 309.905 852.645 309.905H879.223C883.62 309.905 885.407 315.562 881.809 318.088L860.725 332.889C857.281 335.307 855.838 339.703 857.179 343.692L865.329 367.928C866.714 372.047 862.035 375.543 858.478 373.046L836.458 357.588C833.183 355.288 828.817 355.288 825.542 357.588L803.522 373.046C799.965 375.543 795.286 372.047 796.671 367.928L804.821 343.692C806.162 339.703 804.719 335.307 801.275 332.889L780.191 318.088C776.593 315.562 778.38 309.905 782.777 309.905H809.355C813.435 309.905 817.059 307.3 818.359 303.433L826.735 278.527C828.109 274.44 833.891 274.44 835.265 278.527Z" fill="#D6CD00" stroke="#D68000" stroke-width="5"/>
<path d="M578.265 20.5271L586.641 45.4333C587.941 49.3004 591.565 51.9053 595.645 51.9053H622.223C626.62 51.9053 628.407 57.5622 624.809 60.0884L603.725 74.889C600.281 77.3071 598.838 81.7033 600.179 85.6924L608.329 109.928C609.714 114.047 605.035 117.543 601.478 115.046L579.458 99.5878C576.183 97.2883 571.817 97.2883 568.542 99.5878L546.522 115.046C542.965 117.543 538.286 114.047 539.671 109.928L547.821 85.6924C549.162 81.7033 547.719 77.3071 544.275 74.889L523.191 60.0884C519.593 57.5623 521.38 51.9053 525.777 51.9053H552.355C556.435 51.9053 560.059 49.3004 561.359 45.4333L569.735 20.5271C571.109 16.4395 576.891 16.4395 578.265 20.5271Z" fill="#D6CD00" stroke="#D68000" stroke-width="5"/>
</svg>
